<svg width="20" height="20" viewBox="0 0 20 20" fill="none" xmlns="http://www.w3.org/2000/svg">
<path fill-rule="evenodd" clip-rule="evenodd" d="M20 0V20V0ZM0 0V20V0ZM16.5 13.25H14.75V11.5C14.75 11.224 14.526 11 14.25 11H13.75C13.474 11 13.25 11.224 13.25 11.5V13.25H11.5C11.224 13.25 11 13.474 11 13.75V14.25C11 14.526 11.224 14.75 11.5 14.75H13.25V16.5C13.25 16.776 13.474 17 13.75 17H14.25C14.526 17 14.75 16.776 14.75 16.5V14.75H16.5C16.776 14.75 17 14.526 17 14.25V13.75C17 13.474 16.776 13.25 16.5 13.25ZM6 11C4.343 11 3 12.343 3 14C3 15.657 4.343 17 6 17C7.657 17 9 15.657 9 14C9 12.343 7.657 11 6 11ZM6 12.5C6.827 12.5 7.5 13.173 7.5 14C7.5 14.827 6.827 15.5 6 15.5C5.173 15.5 4.5 14.827 4.5 14C4.5 13.173 5.173 12.5 6 12.5ZM14 3C12.343 3 11 4.343 11 6C11 7.657 12.343 9 14 9C15.657 9 17 7.657 17 6C17 4.343 15.657 3 14 3ZM14 4.5C14.827 4.5 15.5 5.173 15.5 6C15.5 6.827 14.827 7.5 14 7.5C13.173 7.5 12.5 6.827 12.5 6C12.5 5.173 13.173 4.5 14 4.5ZM6 3C4.343 3 3 4.343 3 6C3 7.657 4.343 9 6 9C7.657 9 9 7.657 9 6C9 4.343 7.657 3 6 3ZM6 4.5C6.827 4.5 7.5 5.173 7.5 6C7.5 6.827 6.827 7.5 6 7.5C5.173 7.5 4.5 6.827 4.5 6C4.5 5.173 5.173 4.5 6 4.5Z" fill="#FFFFFF"/>
</svg>