<svg width="20" height="20" viewBox="0 0 20 20" fill="none" xmlns="http://www.w3.org/2000/svg">
<path fill-rule="evenodd" clip-rule="evenodd" d="M20 0V20V0ZM0 0V20V0ZM14.177 6.884L11.061 10L14.177 13.116C14.372 13.311 14.372 13.628 14.177 13.823L13.823 14.177C13.628 14.372 13.311 14.372 13.116 14.177L10 11.061L6.884 14.177C6.689 14.372 6.372 14.372 6.177 14.177L5.823 13.823C5.628 13.628 5.628 13.311 5.823 13.116L8.939 10L5.823 6.884C5.628 6.689 5.628 6.372 5.823 6.177L6.177 5.823C6.372 5.628 6.689 5.628 6.884 5.823L10 8.939L13.116 5.823C13.311 5.628 13.628 5.628 13.823 5.823L14.177 6.177C14.372 6.372 14.372 6.689 14.177 6.884Z" fill="#FFFFFF"/>
</svg>