<svg width="20" height="20" viewBox="0 0 20 20" fill="none" xmlns="http://www.w3.org/2000/svg">
<path fill-rule="evenodd" clip-rule="evenodd" d="M20 0V20V0ZM0 0V20V0ZM17.697 13.889L15.576 11.768C15.185 11.377 14.552 11.377 14.162 11.768L13.737 12.192L17.273 15.727L17.697 15.303C18.087 14.913 18.087 14.279 17.697 13.889ZM9.682 4.318C8.803 3.439 7.652 3 6.5 3C5.348 3 4.197 3.439 3.318 4.318C1.561 6.075 1.561 8.925 3.318 10.682C4.197 11.561 5.348 12 6.5 12C7.398 12 8.291 11.724 9.059 11.191L14.727 16.858C15.118 17.249 15.751 17.249 16.142 16.858L16.565 16.435L10.191 10.059C11.409 8.305 11.246 5.882 9.682 4.318ZM6.5 4.5C7.301 4.5 8.055 4.812 8.621 5.379C9.791 6.548 9.791 8.452 8.621 9.621C8.055 10.188 7.301 10.5 6.5 10.5C5.699 10.5 4.945 10.188 4.379 9.621C3.209 8.452 3.209 6.548 4.379 5.379C4.945 4.812 5.699 4.5 6.5 4.5Z" fill="#FFFFFF"/>
</svg>