<svg width="20" height="20" viewBox="0 0 20 20" fill="none" xmlns="http://www.w3.org/2000/svg">
<path fill-rule="evenodd" clip-rule="evenodd" d="M20 0V20V0ZM0 0V20V0ZM12 9.75V10.25C12 10.526 11.776 10.75 11.5 10.75H3.811L6.177 13.116C6.372 13.311 6.372 13.628 6.177 13.823L5.823 14.177C5.628 14.372 5.311 14.372 5.116 14.177L1.647 10.707C1.256 10.317 1.256 9.683 1.647 9.293L5.116 5.823C5.311 5.628 5.628 5.628 5.823 5.823L6.177 6.177C6.372 6.372 6.372 6.689 6.177 6.884L3.811 9.25H11.5C11.776 9.25 12 9.474 12 9.75ZM16 2H3.604C3.381 2 3.269 2.269 3.427 2.427L4.207 3.207C4.395 3.395 4.649 3.5 4.914 3.5H15.5V16.5H4.914C4.649 16.5 4.395 16.605 4.207 16.793L3.427 17.573C3.269 17.731 3.381 18 3.604 18H16C16.552 18 17 17.552 17 17V3C17 2.448 16.552 2 16 2Z" fill="#FFFFFF"/>
</svg>