<svg width="20" height="20" viewBox="0 0 20 20" fill="none" xmlns="http://www.w3.org/2000/svg">
<path fill-rule="evenodd" clip-rule="evenodd" d="M20 0V20V0ZM0 0V20V0ZM6.5 7C6.5 5.07 8.07 3.5 10 3.5C11.93 3.5 13.5 5.07 13.5 7V8H6.5V7ZM15 8V7.215C15 4.603 13.091 2.271 10.491 2.023C7.509 1.739 5 4.077 5 7V8H4C3.448 8 3 8.448 3 9V17C3 17.552 3.448 18 4 18H16C16.552 18 17 17.552 17 17V9C17 8.448 16.552 8 16 8H15ZM9.2 12.5V14.5C9.2 14.776 9.424 15 9.7 15H10.3C10.576 15 10.8 14.776 10.8 14.5V12.5C10.8 12.224 10.576 12 10.3 12H9.7C9.424 12 9.2 12.224 9.2 12.5ZM4.5 16.5H15.5V9.5H4.5V16.5Z" fill="#FFFFFF"/>
</svg>