<svg width="20" height="20" viewBox="0 0 20 20" fill="none" xmlns="http://www.w3.org/2000/svg">
<path fill-rule="evenodd" clip-rule="evenodd" d="M20 0V20V0ZM0 0V20V0ZM12.5 13.4H14.306C13.298 14.675 11.747 15.5 10 15.5C7.12 15.5 4.751 13.276 4.519 10.455C4.497 10.198 4.283 10 4.025 10H3.523C3.231 10 2.998 10.248 3.02 10.54C3.296 14.153 6.316 17 10 17C12.301 17 14.326 15.877 15.6 14.161V16.5C15.6 16.776 15.824 17 16.1 17H16.5C16.776 17 17 16.776 17 16.5V12.5C17 12.224 16.776 12 16.5 12H12.5C12.224 12 12 12.224 12 12.5V12.9C12 13.176 12.224 13.4 12.5 13.4ZM7.5 8H3.5C3.224 8 3 7.776 3 7.5V3.5C3 3.224 3.224 3 3.5 3H3.9C4.176 3 4.4 3.224 4.4 3.5V5.839C5.674 4.123 7.699 3 10 3C13.684 3 16.704 5.846 16.98 9.46C17.002 9.752 16.769 10 16.477 10H15.975C15.717 10 15.503 9.802 15.481 9.545C15.249 6.724 12.88 4.5 10 4.5C8.253 4.5 6.702 5.325 5.694 6.6H7.5C7.776 6.6 8 6.824 8 7.1V7.5C8 7.776 7.776 8 7.5 8Z" fill="#FFFFFF"/>
</svg>