<svg width="20" height="20" viewBox="0 0 20 20" fill="none" xmlns="http://www.w3.org/2000/svg">
<path fill-rule="evenodd" clip-rule="evenodd" d="M0 20V0V20ZM20 0V20V0ZM10 7C9.232 7 8.464 7.293 7.879 7.879C6.707 9.05 6.707 10.95 7.879 12.121C8.464 12.707 9.232 13 10 13C10.768 13 11.536 12.707 12.121 12.121C13.293 10.95 13.293 9.05 12.121 7.879C11.536 7.293 10.768 7 10 7ZM8.939 11.061C8.354 10.476 8.354 9.524 8.939 8.939C9.223 8.656 9.599 8.5 10 8.5C10.401 8.5 10.777 8.656 11.061 8.939L8.939 11.061ZM10 4C6.897 4 3.795 5.814 1.359 9.443C1.137 9.775 1.137 10.225 1.359 10.557C3.795 14.186 6.897 16 10 16C13.103 16 16.205 14.186 18.641 10.557C18.863 10.225 18.863 9.775 18.641 9.443C16.205 5.814 13.103 4 10 4ZM10 5.5C12.632 5.5 15.165 7.09 17.204 10C15.165 12.91 12.632 14.5 10 14.5C7.368 14.5 4.835 12.91 2.796 10C4.835 7.09 7.368 5.5 10 5.5Z" fill="#000000"/>
</svg>