<svg width="20" height="20" viewBox="0 0 20 20" fill="none" xmlns="http://www.w3.org/2000/svg">
<path fill-rule="evenodd" clip-rule="evenodd" d="M0 20V0V20ZM20 0V20V0ZM12.796 6.143C11.889 5.734 10.953 5.5 10 5.5C7.368 5.5 4.835 7.09 2.796 10C3.72 11.319 4.749 12.35 5.84 13.1L7.423 11.516C6.747 10.366 6.891 8.866 7.879 7.879C8.464 7.293 9.232 7 10 7C10.526 7 11.048 7.148 11.516 7.423L12.796 6.143ZM17.177 3.884L12.577 8.484C13.253 9.634 13.109 11.134 12.121 12.121C11.536 12.707 10.768 13 10 13C9.474 13 8.952 12.852 8.484 12.577L3.884 17.177C3.689 17.372 3.372 17.372 3.177 17.177L2.823 16.823C2.628 16.628 2.628 16.311 2.823 16.116L4.766 14.174C3.545 13.292 2.393 12.092 1.361 10.558C1.138 10.226 1.137 9.774 1.36 9.442C3.796 5.814 6.898 4 10 4C11.327 4 12.651 4.346 13.924 5.016L16.116 2.823C16.311 2.628 16.628 2.628 16.823 2.823L17.177 3.177C17.372 3.372 17.372 3.689 17.177 3.884ZM11.061 8.939C10.777 8.656 10.401 8.5 10 8.5C9.599 8.5 9.223 8.656 8.939 8.939C8.354 9.524 8.354 10.476 8.939 11.061L11.061 8.939ZM10 16C9.183 16 8.365 15.873 7.56 15.622L8.804 14.377C9.2 14.451 9.598 14.5 10 14.5C12.632 14.5 15.165 12.91 17.204 10C16.62 9.167 15.992 8.455 15.337 7.845L16.39 6.792C17.183 7.534 17.941 8.409 18.641 9.445C18.864 9.776 18.863 10.225 18.641 10.556C16.205 14.185 13.103 16 10 16Z" fill="#000000"/>
</svg>